<svg width="1600" height="488" viewBox="0 0 1600 488" fill="none" xmlns="http://www.w3.org/2000/svg">
<g clip-path="url(#clip0)">
<path d="M67.5385 175V103.923H84.359V161.718H115.179L113.436 175H67.5385ZM145.882 115.923V133H170.498V144.795H145.882V162.949H175.575V175H129.062V103.923H175.523L173.831 115.923H145.882ZM240.278 139.41C240.278 146.932 239.201 153.496 237.047 159.103C234.893 164.675 231.696 169.017 227.457 172.128C223.252 175.205 218.038 176.744 211.816 176.744C205.628 176.744 200.414 175.239 196.175 172.231C191.936 169.188 188.739 164.88 186.585 159.308C184.431 153.735 183.355 147.103 183.355 139.41C183.355 131.889 184.431 125.342 186.585 119.769C188.739 114.197 191.936 109.872 196.175 106.795C200.414 103.684 205.628 102.128 211.816 102.128C218.038 102.128 223.252 103.632 227.457 106.641C231.696 109.65 234.893 113.94 237.047 119.513C239.201 125.085 240.278 131.718 240.278 139.41ZM223.047 139.41C223.047 130.658 222.175 124.299 220.431 120.333C218.688 116.368 215.816 114.385 211.816 114.385C207.816 114.385 204.944 116.385 203.201 120.385C201.457 124.35 200.585 130.692 200.585 139.41C200.585 148.162 201.474 154.521 203.252 158.487C205.03 162.453 207.884 164.436 211.816 164.436C215.919 164.436 218.808 162.436 220.483 158.436C222.192 154.402 223.047 148.06 223.047 139.41ZM247.699 194.077V181.359H298.981V194.077H247.699ZM99.0256 282.667H78.2051L74.4615 298H56.8718L78.6154 226.923H99.0256L120.769 298H102.769L99.0256 282.667ZM80.8718 270.462H96.2564L88.5641 239.026L80.8718 270.462ZM129.062 298V226.923H145.882V284.718H176.703L174.959 298H129.062ZM207.406 238.923V256H232.021V267.795H207.406V285.949H237.098V298H190.585V226.923H237.047L235.355 238.923H207.406ZM113.744 349.923L117.744 421H103.077L102.205 390.59C102.137 387.752 102.103 385.222 102.103 383C102.137 380.778 102.188 378.692 102.256 376.744C102.325 374.761 102.427 372.778 102.564 370.795C102.735 368.778 102.906 366.59 103.077 364.231L95.0769 408.897H82.359L73.7436 364.231C73.9487 366.487 74.1197 368.624 74.2564 370.641C74.4274 372.624 74.547 374.624 74.6154 376.641C74.6838 378.658 74.735 380.829 74.7692 383.154C74.8034 385.444 74.7863 388.009 74.7179 390.846L74.2051 421H59.7949L63.7949 349.923H81.0769L88.9744 395.872L96.4615 349.923H113.744ZM160.549 405.667H139.729L135.985 421H118.395L140.139 349.923H160.549L182.293 421H164.293L160.549 405.667ZM142.395 393.462H157.78L150.088 362.026L142.395 393.462ZM182.996 349.923H201.098L211.816 372.744L222.79 349.923H240.534L221.662 382.538L242.278 421H224.175L211.611 393.872L199.252 421H181.406L201.611 383.256L182.996 349.923Z" fill="#F7D766"/>
<path d="M58.5385 160V88.9231H75.359V146.718H106.179L104.436 160H58.5385ZM136.882 100.923V118H161.498V129.795H136.882V147.949H166.575V160H120.062V88.9231H166.523L164.831 100.923H136.882ZM231.278 124.41C231.278 131.932 230.201 138.496 228.047 144.103C225.893 149.675 222.696 154.017 218.457 157.128C214.252 160.205 209.038 161.744 202.816 161.744C196.628 161.744 191.414 160.239 187.175 157.231C182.936 154.188 179.739 149.88 177.585 144.308C175.431 138.735 174.355 132.103 174.355 124.41C174.355 116.889 175.431 110.342 177.585 104.769C179.739 99.1966 182.936 94.8718 187.175 91.7949C191.414 88.6838 196.628 87.1282 202.816 87.1282C209.038 87.1282 214.252 88.6325 218.457 91.641C222.696 94.6496 225.893 98.9402 228.047 104.513C230.201 110.085 231.278 116.718 231.278 124.41ZM214.047 124.41C214.047 115.658 213.175 109.299 211.431 105.333C209.688 101.368 206.816 99.3846 202.816 99.3846C198.816 99.3846 195.944 101.385 194.201 105.385C192.457 109.35 191.585 115.692 191.585 124.41C191.585 133.162 192.474 139.521 194.252 143.487C196.03 147.453 198.884 149.436 202.816 149.436C206.919 149.436 209.808 147.436 211.483 143.436C213.192 139.402 214.047 133.06 214.047 124.41ZM238.699 179.077V166.359H289.981V179.077H238.699ZM90.0256 267.667H69.2051L65.4615 283H47.8718L69.6154 211.923H90.0256L111.769 283H93.7692L90.0256 267.667ZM71.8718 255.462H87.2564L79.5641 224.026L71.8718 255.462ZM120.062 283V211.923H136.882V269.718H167.703L165.959 283H120.062ZM198.406 223.923V241H223.021V252.795H198.406V270.949H228.098V283H181.585V211.923H228.047L226.355 223.923H198.406ZM104.744 334.923L108.744 406H94.0769L93.2051 375.59C93.1367 372.752 93.1026 370.222 93.1026 368C93.1368 365.778 93.188 363.692 93.2564 361.744C93.3248 359.761 93.4273 357.778 93.5641 355.795C93.735 353.778 93.906 351.59 94.0769 349.231L86.0769 393.897H73.359L64.7436 349.231C64.9487 351.487 65.1197 353.624 65.2564 355.641C65.4274 357.624 65.547 359.624 65.6154 361.641C65.6838 363.658 65.735 365.829 65.7692 368.154C65.8034 370.444 65.7863 373.009 65.7179 375.846L65.2051 406H50.7949L54.7949 334.923H72.0769L79.9744 380.872L87.4615 334.923H104.744ZM151.549 390.667H130.729L126.985 406H109.395L131.139 334.923H151.549L173.293 406H155.293L151.549 390.667ZM133.395 378.462H148.78L141.088 347.026L133.395 378.462ZM173.996 334.923H192.098L202.816 357.744L213.79 334.923H231.534L212.662 367.538L233.278 406H215.175L202.611 378.872L190.252 406H172.406L192.611 368.256L173.996 334.923Z" fill="#22272E"/>
<path d="M41.5385 153V81.9231H58.359V139.718H89.1795L87.4359 153H41.5385ZM119.882 93.9231V111H144.498V122.795H119.882V140.949H149.575V153H103.062V81.9231H149.523L147.831 93.9231H119.882ZM214.278 117.41C214.278 124.932 213.201 131.496 211.047 137.103C208.893 142.675 205.696 147.017 201.457 150.128C197.252 153.205 192.038 154.744 185.816 154.744C179.628 154.744 174.414 153.239 170.175 150.231C165.936 147.188 162.739 142.88 160.585 137.308C158.431 131.735 157.355 125.103 157.355 117.41C157.355 109.889 158.431 103.342 160.585 97.7692C162.739 92.1966 165.936 87.8718 170.175 84.7949C174.414 81.6838 179.628 80.1282 185.816 80.1282C192.038 80.1282 197.252 81.6325 201.457 84.641C205.696 87.6496 208.893 91.9402 211.047 97.5128C213.201 103.085 214.278 109.718 214.278 117.41ZM197.047 117.41C197.047 108.658 196.175 102.299 194.431 98.3333C192.688 94.3675 189.816 92.3846 185.816 92.3846C181.816 92.3846 178.944 94.3846 177.201 98.3846C175.457 102.35 174.585 108.692 174.585 117.41C174.585 126.162 175.474 132.521 177.252 136.487C179.03 140.453 181.884 142.436 185.816 142.436C189.919 142.436 192.808 140.436 194.483 136.436C196.192 132.402 197.047 126.06 197.047 117.41ZM221.699 172.077V159.359H272.981V172.077H221.699ZM73.0256 260.667H52.2051L48.4615 276H30.8718L52.6154 204.923H73.0256L94.7692 276H76.7692L73.0256 260.667ZM54.8718 248.462H70.2564L62.5641 217.026L54.8718 248.462ZM103.062 276V204.923H119.882V262.718H150.703L148.959 276H103.062ZM181.406 216.923V234H206.021V245.795H181.406V263.949H211.098V276H164.585V204.923H211.047L209.355 216.923H181.406ZM87.7436 327.923L91.7436 399H77.0769L76.2051 368.59C76.1367 365.752 76.1026 363.222 76.1026 361C76.1368 358.778 76.188 356.692 76.2564 354.744C76.3248 352.761 76.4273 350.778 76.5641 348.795C76.735 346.778 76.906 344.59 77.0769 342.231L69.0769 386.897H56.359L47.7436 342.231C47.9487 344.487 48.1197 346.624 48.2564 348.641C48.4274 350.624 48.547 352.624 48.6154 354.641C48.6838 356.658 48.735 358.829 48.7692 361.154C48.8034 363.444 48.7863 366.009 48.7179 368.846L48.2051 399H33.7949L37.7949 327.923H55.0769L62.9744 373.872L70.4615 327.923H87.7436ZM134.549 383.667H113.729L109.985 399H92.3952L114.139 327.923H134.549L156.293 399H138.293L134.549 383.667ZM116.395 371.462H131.78L124.088 340.026L116.395 371.462ZM156.996 327.923H175.098L185.816 350.744L196.79 327.923H214.534L195.662 360.538L216.278 399H198.175L185.611 371.872L173.252 399H155.406L175.611 361.256L156.996 327.923Z" fill="white"/>
<path d="M837.673 119.285L763 162.621V249.293L837.673 292.631L912.345 249.295V162.621L837.673 119.285ZM836.936 206.378L836.715 289.852L764.693 248.324L764.804 206.518L764.916 164.711L836.936 206.378ZM838.631 289.852V206.378L910.427 164.711V248.183L838.631 289.852Z" fill="#F7D766"/>
<path d="M912.401 161.658L837.728 204.994V291.666L912.401 335.004L987.073 291.668V204.994L912.401 161.658ZM911.664 248.751L911.443 332.225L839.421 290.697L839.532 248.891L839.644 207.084L911.664 248.751ZM984.082 205.482L912.397 247.083L840.715 205.484L912.401 163.882L984.082 205.482ZM913.359 332.225V248.751L985.155 207.084V290.556L913.359 332.225Z" fill="#F7D766"/>
<path d="M912.401 246.405L837.728 289.741V376.413L912.401 419.751L987.073 376.415V289.741L912.401 246.405ZM911.664 333.498L911.443 416.972L839.421 375.444L839.532 333.638L839.644 291.831L911.664 333.498ZM984.082 290.229L912.397 331.83L840.715 290.231L912.401 248.629L984.082 290.229ZM913.359 416.972V333.498L985.155 291.831V375.303L913.359 416.972Z" fill="#F7D766"/>
<path d="M837.673 32.6538L763 75.9905V162.662L837.673 206L912.345 162.664V75.9905L837.673 32.6538ZM836.936 119.747L836.715 203.221L764.693 161.693L764.804 119.887L764.916 78.0803L836.936 119.747ZM909.354 76.4778L837.669 118.079L765.987 76.4797L837.673 34.8784L909.354 76.4778ZM838.631 203.221V119.747L910.427 78.0803V161.552L838.631 203.221Z" fill="#F7D766"/>
<path d="M625.339 284.359L552 326.922V412.045L625.339 454.609L698.677 412.046V326.922L625.339 284.359ZM624.615 369.896L624.398 451.879L553.663 411.093L553.772 370.034L553.882 328.974L624.615 369.896ZM626.279 451.879V369.896L696.793 328.974V410.955L626.279 451.879Z" fill="#F7D766"/>
<path d="M625.339 199.234L552 241.796V326.919L625.339 369.483L698.677 326.921V241.796L625.339 199.234ZM624.615 284.771L624.398 366.754L553.663 325.968L553.772 284.908L553.882 243.849L624.615 284.771ZM695.739 242.275L625.335 283.133L554.934 242.277L625.339 201.419L695.739 242.275ZM626.279 366.754V284.771L696.793 243.849V325.829L626.279 366.754Z" fill="#F7D766"/>
<path d="M625.339 28.9849L552 71.5472V156.67L625.339 199.234L698.677 156.672V71.5472L625.339 28.9849ZM624.615 114.522L624.398 196.505L553.663 155.719L553.772 114.659L553.882 73.5997L624.615 114.522ZM695.739 72.0258L625.335 112.884L554.934 72.0277L625.339 31.1697L695.739 72.0258ZM626.279 196.505V114.522L696.793 73.5997V155.581L626.279 196.505Z" fill="#F7D766"/>
<path d="M1504.69 -7.83887L1393.39 56.7579V185.949L1504.69 250.548L1616 185.952V56.7579L1504.69 -7.83887ZM1503.6 121.981L1503.27 246.406L1395.91 184.505L1396.08 122.189L1396.24 59.8729L1503.6 121.981ZM1506.12 246.406V121.981L1613.14 59.8729V184.295L1506.12 246.406Z" fill="#F7D766"/>
<path d="M1393.31 55.3232L1282 119.92V249.111L1393.31 313.71L1504.61 249.114V119.92L1393.31 55.3232ZM1392.21 185.143L1391.88 309.568L1284.52 247.667L1284.69 185.351L1284.86 123.035L1392.21 185.143ZM1394.73 309.568V185.143L1501.75 123.035V247.457L1394.73 309.568Z" fill="#F7D766"/>
<path d="M1504.69 121.355L1393.39 185.952V315.143L1504.69 379.743L1616 315.146V185.952L1504.69 121.355ZM1503.6 251.175L1503.27 375.6L1395.91 313.699L1396.08 251.383L1396.24 189.067L1503.6 251.175ZM1611.54 186.679L1504.69 248.689L1397.84 186.682L1504.69 124.671L1611.54 186.679ZM1506.12 375.6V251.175L1613.14 189.067V313.489L1506.12 375.6Z" fill="#F7D766"/>
<path d="M1393.31 -71L1282 -6.4032V122.788L1393.31 187.387L1504.61 122.79V-6.4032L1393.31 -71ZM1392.21 58.8195L1391.88 183.244L1284.52 121.343L1284.69 59.0276L1284.86 -3.2882L1392.21 58.8195ZM1500.15 -5.67684L1393.3 56.3332L1286.45 -5.67397L1393.31 -67.684L1500.15 -5.67684ZM1394.73 183.244V58.8195L1501.75 -3.2882V121.134L1394.73 183.244Z" fill="#F7D766"/>
<path d="M1091.7 283.992L1003 335.472V438.431L1091.7 489.913L1180.41 438.433V335.472L1091.7 283.992ZM1090.83 387.451L1090.57 486.612L1005.01 437.28L1005.14 387.617L1005.28 337.955L1090.83 387.451ZM1092.84 486.612V387.451L1178.13 337.955V437.113L1092.84 486.612Z" fill="#F7D766"/>
<path d="M1179.5 438.349L1090.8 489.829V592.787L1179.5 644.27L1268.2 592.79V489.829L1179.5 438.349ZM1178.63 541.808L1178.36 640.968L1092.81 591.637L1092.94 541.974L1093.07 492.312L1178.63 541.808ZM1264.65 490.408L1179.5 539.827L1094.34 490.41L1179.5 440.992L1264.65 490.408ZM1180.64 640.968V541.808L1265.93 492.312V591.47L1180.64 640.968Z" fill="#F7D766"/>
<path d="M1091.7 386.897L1003 438.377V541.335L1091.7 592.818L1180.41 541.338V438.377L1091.7 386.897ZM1090.83 490.356L1090.57 589.516L1005.01 540.185L1005.14 490.522L1005.28 440.86L1090.83 490.356ZM1176.86 438.956L1091.7 488.375L1006.55 438.958L1091.7 389.54L1176.86 438.956ZM1092.84 589.516V490.356L1178.13 440.86V540.017L1092.84 589.516Z" fill="#F7D766"/>
<path d="M837.673 142.285L763 185.621V272.293L837.673 315.631L912.345 272.295V185.621L837.673 142.285ZM836.936 229.378L836.715 312.852L764.693 271.324L764.804 229.518L764.916 187.711L836.936 229.378ZM838.631 312.852V229.378L910.427 187.711V271.183L838.631 312.852Z" fill="#22272E"/>
<path d="M912.401 184.658L837.728 227.994V314.666L912.401 358.004L987.073 314.668V227.994L912.401 184.658ZM911.664 271.751L911.443 355.225L839.421 313.697L839.532 271.891L839.644 230.084L911.664 271.751ZM984.082 228.482L912.397 270.083L840.715 228.484L912.401 186.882L984.082 228.482ZM913.359 355.225V271.751L985.155 230.084V313.556L913.359 355.225Z" fill="#22272E"/>
<path d="M912.401 269.405L837.728 312.741V399.413L912.401 442.751L987.073 399.415V312.741L912.401 269.405ZM911.664 356.498L911.443 439.972L839.421 398.444L839.532 356.638L839.644 314.831L911.664 356.498ZM984.082 313.229L912.397 354.83L840.715 313.231L912.401 271.629L984.082 313.229ZM913.359 439.972V356.498L985.155 314.831V398.303L913.359 439.972Z" fill="#22272E"/>
<path d="M837.673 55.6538L763 98.9905V185.662L837.673 229L912.345 185.664V98.9905L837.673 55.6538ZM836.936 142.747L836.715 226.221L764.693 184.693L764.804 142.887L764.916 101.08L836.936 142.747ZM909.354 99.4778L837.669 141.079L765.987 99.4797L837.673 57.8784L909.354 99.4778ZM838.631 226.221V142.747L910.427 101.08V184.552L838.631 226.221Z" fill="#22272E"/>
<path d="M625.339 307.359L552 349.922V435.045L625.339 477.609L698.677 435.046V349.922L625.339 307.359ZM624.615 392.896L624.398 474.879L553.663 434.093L553.772 393.034L553.882 351.974L624.615 392.896ZM626.279 474.879V392.896L696.793 351.974V433.955L626.279 474.879Z" fill="#22272E"/>
<path d="M625.339 222.234L552 264.796V349.919L625.339 392.483L698.677 349.921V264.796L625.339 222.234ZM624.615 307.771L624.398 389.754L553.663 348.968L553.772 307.908L553.882 266.849L624.615 307.771ZM695.739 265.275L625.335 306.133L554.934 265.277L625.339 224.419L695.739 265.275ZM626.279 389.754V307.771L696.793 266.849V348.829L626.279 389.754Z" fill="#22272E"/>
<path d="M625.339 51.9849L552 94.5472V179.67L625.339 222.234L698.677 179.672V94.5472L625.339 51.9849ZM624.615 137.522L624.398 219.505L553.663 178.719L553.772 137.659L553.882 96.5997L624.615 137.522ZM695.739 95.0258L625.335 135.884L554.934 95.0277L625.339 54.1697L695.739 95.0258ZM626.279 219.505V137.522L696.793 96.5997V178.581L626.279 219.505Z" fill="#22272E"/>
<path d="M1504.69 15.1611L1393.39 79.7579V208.949L1504.69 273.548L1616 208.952V79.7579L1504.69 15.1611ZM1503.6 144.981L1503.27 269.406L1395.91 207.505L1396.08 145.189L1396.24 82.8729L1503.6 144.981ZM1506.12 269.406V144.981L1613.14 82.8729V207.295L1506.12 269.406Z" fill="#22272E"/>
<path d="M1393.31 78.3232L1282 142.92V272.111L1393.31 336.71L1504.61 272.114V142.92L1393.31 78.3232ZM1392.21 208.143L1391.88 332.568L1284.52 270.667L1284.69 208.351L1284.86 146.035L1392.21 208.143ZM1394.73 332.568V208.143L1501.75 146.035V270.457L1394.73 332.568Z" fill="#22272E"/>
<path d="M1504.69 144.355L1393.39 208.952V338.143L1504.69 402.743L1616 338.146V208.952L1504.69 144.355ZM1503.6 274.175L1503.27 398.6L1395.91 336.699L1396.08 274.383L1396.24 212.067L1503.6 274.175ZM1611.54 209.679L1504.69 271.689L1397.84 209.682L1504.69 147.671L1611.54 209.679ZM1506.12 398.6V274.175L1613.14 212.067V336.489L1506.12 398.6Z" fill="#22272E"/>
<path d="M1393.31 -48L1282 16.5968V145.788L1393.31 210.387L1504.61 145.79V16.5968L1393.31 -48ZM1392.21 81.8195L1391.88 206.244L1284.52 144.343L1284.69 82.0276L1284.86 19.7118L1392.21 81.8195ZM1500.15 17.3232L1393.3 79.3332L1286.45 17.326L1393.31 -44.684L1500.15 17.3232ZM1394.73 206.244V81.8195L1501.75 19.7118V144.134L1394.73 206.244Z" fill="#22272E"/>
<path d="M1091.7 306.992L1003 358.472V461.431L1091.7 512.913L1180.41 461.433V358.472L1091.7 306.992ZM1090.83 410.451L1090.57 509.612L1005.01 460.28L1005.14 410.617L1005.28 360.955L1090.83 410.451ZM1092.84 509.612V410.451L1178.13 360.955V460.113L1092.84 509.612Z" fill="#22272E"/>
<path d="M1179.5 461.349L1090.8 512.829V615.787L1179.5 667.27L1268.2 615.79V512.829L1179.5 461.349ZM1178.63 564.808L1178.36 663.968L1092.81 614.637L1092.94 564.974L1093.07 515.312L1178.63 564.808ZM1264.65 513.408L1179.5 562.827L1094.34 513.41L1179.5 463.992L1264.65 513.408ZM1180.64 663.968V564.808L1265.93 515.312V614.47L1180.64 663.968Z" fill="#22272E"/>
<path d="M1091.7 409.897L1003 461.377V564.335L1091.7 615.818L1180.41 564.338V461.377L1091.7 409.897ZM1090.83 513.356L1090.57 612.516L1005.01 563.185L1005.14 513.522L1005.28 463.86L1090.83 513.356ZM1176.86 461.956L1091.7 511.375L1006.55 461.958L1091.7 412.54L1176.86 461.956ZM1092.84 612.516V513.356L1178.13 463.86V563.017L1092.84 612.516Z" fill="#22272E"/>
<path d="M814.673 115.285L740 158.621V245.293L814.673 288.631L889.345 245.295V158.621L814.673 115.285ZM813.936 202.378L813.715 285.852L741.693 244.324L741.804 202.518L741.916 160.711L813.936 202.378ZM815.631 285.852V202.378L887.427 160.711V244.183L815.631 285.852Z" fill="white"/>
<path d="M889.401 157.658L814.728 200.994V287.666L889.401 331.004L964.073 287.668V200.994L889.401 157.658ZM888.664 244.751L888.443 328.225L816.421 286.697L816.532 244.891L816.644 203.084L888.664 244.751ZM961.082 201.482L889.397 243.083L817.715 201.484L889.401 159.882L961.082 201.482ZM890.359 328.225V244.751L962.155 203.084V286.556L890.359 328.225Z" fill="white"/>
<path d="M889.401 242.405L814.728 285.741V372.413L889.401 415.751L964.073 372.415V285.741L889.401 242.405ZM888.664 329.498L888.443 412.972L816.421 371.444L816.532 329.638L816.644 287.831L888.664 329.498ZM961.082 286.229L889.397 327.83L817.715 286.231L889.401 244.629L961.082 286.229ZM890.359 412.972V329.498L962.155 287.831V371.303L890.359 412.972Z" fill="white"/>
<path d="M814.673 28.6538L740 71.9905V158.662L814.673 202L889.345 158.664V71.9905L814.673 28.6538ZM813.936 115.747L813.715 199.221L741.693 157.693L741.804 115.887L741.916 74.0803L813.936 115.747ZM886.354 72.4778L814.669 114.079L742.987 72.4797L814.673 30.8784L886.354 72.4778ZM815.631 199.221V115.747L887.427 74.0803V157.552L815.631 199.221Z" fill="white"/>
<path d="M602.339 280.359L529 322.922V408.045L602.339 450.609L675.677 408.046V322.922L602.339 280.359ZM601.615 365.896L601.398 447.879L530.663 407.093L530.772 366.034L530.882 324.974L601.615 365.896ZM603.279 447.879V365.896L673.793 324.974V406.955L603.279 447.879Z" fill="white"/>
<path d="M602.339 195.234L529 237.796V322.919L602.339 365.483L675.677 322.921V237.796L602.339 195.234ZM601.615 280.771L601.398 362.754L530.663 321.968L530.772 280.908L530.882 239.849L601.615 280.771ZM672.739 238.275L602.335 279.133L531.934 238.277L602.339 197.419L672.739 238.275ZM603.279 362.754V280.771L673.793 239.849V321.829L603.279 362.754Z" fill="white"/>
<path d="M602.339 24.9849L529 67.5472V152.67L602.339 195.234L675.677 152.672V67.5472L602.339 24.9849ZM601.615 110.522L601.398 192.505L530.663 151.719L530.772 110.659L530.882 69.5997L601.615 110.522ZM672.739 68.0258L602.335 108.884L531.934 68.0277L602.339 27.1697L672.739 68.0258ZM603.279 192.505V110.522L673.793 69.5997V151.581L603.279 192.505Z" fill="white"/>
<path d="M1481.69 -11.8389L1370.39 52.7579V181.949L1481.69 246.548L1593 181.952V52.7579L1481.69 -11.8389ZM1480.6 117.981L1480.27 242.406L1372.91 180.505L1373.08 118.189L1373.24 55.8729L1480.6 117.981ZM1483.12 242.406V117.981L1590.14 55.8729V180.295L1483.12 242.406Z" fill="white"/>
<path d="M1370.31 51.3232L1259 115.92V245.111L1370.31 309.71L1481.61 245.114V115.92L1370.31 51.3232ZM1369.21 181.143L1368.88 305.568L1261.52 243.667L1261.69 181.351L1261.86 119.035L1369.21 181.143ZM1371.73 305.568V181.143L1478.75 119.035V243.457L1371.73 305.568Z" fill="white"/>
<path d="M1481.69 117.355L1370.39 181.952V311.143L1481.69 375.743L1593 311.146V181.952L1481.69 117.355ZM1480.6 247.175L1480.27 371.6L1372.91 309.699L1373.08 247.383L1373.24 185.067L1480.6 247.175ZM1588.54 182.679L1481.69 244.689L1374.84 182.682L1481.69 120.671L1588.54 182.679ZM1483.12 371.6V247.175L1590.14 185.067V309.489L1483.12 371.6Z" fill="white"/>
<path d="M1370.31 -75L1259 -10.4032V118.788L1370.31 183.387L1481.61 118.79V-10.4032L1370.31 -75ZM1369.21 54.8195L1368.88 179.244L1261.52 117.343L1261.69 55.0276L1261.86 -7.2882L1369.21 54.8195ZM1477.15 -9.67684L1370.3 52.3332L1263.45 -9.67397L1370.31 -71.684L1477.15 -9.67684ZM1371.73 179.244V54.8195L1478.75 -7.2882V117.134L1371.73 179.244Z" fill="white"/>
<path d="M1068.7 279.992L980 331.472V434.431L1068.7 485.913L1157.41 434.433V331.472L1068.7 279.992ZM1067.83 383.451L1067.57 482.612L982.011 433.28L982.144 383.617L982.276 333.955L1067.83 383.451ZM1069.84 482.612V383.451L1155.13 333.955V433.113L1069.84 482.612Z" fill="white"/>
<path d="M1156.5 434.349L1067.8 485.829V588.787L1156.5 640.27L1245.2 588.79V485.829L1156.5 434.349ZM1155.63 537.808L1155.36 636.968L1069.81 587.637L1069.94 537.974L1070.07 488.312L1155.63 537.808ZM1241.65 486.408L1156.5 535.827L1071.34 486.41L1156.5 436.992L1241.65 486.408ZM1157.64 636.968V537.808L1242.93 488.312V587.47L1157.64 636.968Z" fill="white"/>
<path d="M1068.7 382.897L980 434.377V537.335L1068.7 588.818L1157.41 537.338V434.377L1068.7 382.897ZM1067.83 486.356L1067.57 585.516L982.011 536.185L982.144 486.522L982.276 436.86L1067.83 486.356ZM1153.86 434.956L1068.7 484.375L983.549 434.958L1068.7 385.54L1153.86 434.956ZM1069.84 585.516V486.356L1155.13 436.86V536.017L1069.84 585.516Z" fill="white"/>
<path d="M1244.3 485.801L1155.59 537.281V640.24L1244.3 691.722L1333 640.242V537.281L1244.3 485.801ZM1243.42 589.26L1243.16 688.421L1157.6 639.089L1157.73 589.426L1157.87 539.764L1243.42 589.26ZM1329.45 537.86L1244.29 587.279L1159.14 537.863L1244.3 488.444L1329.45 537.86ZM1245.43 688.421V589.26L1330.72 539.764V638.922L1245.43 688.421Z" fill="white"/>
</g>
<defs>
<clipPath id="clip0">
<rect width="1600" height="488" fill="white"/>
</clipPath>
</defs>
</svg>
