<svg width="33" height="33" viewBox="0 0 33 33" fill="none" xmlns="http://www.w3.org/2000/svg">
<g clip-path="url(#clip0)">
<path d="M16.5 4.35986L5.97778 10.4799V22.7196L16.5 28.8399L27.0221 22.7199V10.4799L16.5 4.35986ZM16.5 22.4068L11.6119 19.5647L16.5002 16.7405L21.3843 19.563L16.5 22.4068ZM11.3735 13.6177L11.374 13.6185H11.3729L11.3735 13.6177ZM11.5085 13.6963L16.3655 10.8794V16.5052L11.5085 19.3112V13.6963ZM21.7623 13.6965L16.6352 10.8691L21.4923 13.6965L21.492 19.312L21.7623 13.6965ZM21.6108 13.4512L16.7778 10.6403L21.7752 7.74218L26.6007 10.5487L21.6108 13.4512ZM11.3735 13.4604L6.39871 10.549L11.2439 7.73103L16.2324 10.6349L11.3735 13.4604ZM11.2385 13.6957L11.2387 19.3476L6.24778 16.4465V10.775L11.2385 13.6957ZM16.365 22.6421V28.4474L11.5087 25.6226V19.8176L16.365 22.6421ZM16.635 22.6421L21.492 19.8171L21.4917 25.6224L16.635 28.4474V22.6421ZM21.7623 13.6965L26.7519 10.775V16.4386L21.762 19.3435L21.7623 13.6965ZM21.4904 7.57654L16.5002 10.4788L11.5098 7.57626L16.5 4.67402L21.4904 7.57654ZM6.24778 16.7579L11.2385 19.6607V25.4657L6.24778 22.5624V16.7579ZM21.7617 25.4654L21.762 19.6601L26.7519 16.7579V22.5629L21.7617 25.4654Z" fill="white"/>
<g clip-path="url(#clip1)">
<path d="M27.017 24.0114L26.978 11.8389L16.3781 5.71906L5.81669 11.7714L5.85568 23.9439L16.4558 30.0639L27.017 24.0114ZM11.3879 14.9879L16.2933 12.1758L16.2949 17.8213L11.4085 20.6397L11.3879 14.9879ZM21.5628 14.9428L21.5618 14.9429L21.5623 14.9419L21.5628 14.9428ZM21.4272 15.0204L21.4381 20.6352L16.566 17.8223L16.5645 12.213L21.4272 15.0204ZM16.3 23.9003L21.3122 20.8739L16.435 23.6665L11.5721 20.8586L16.3 23.9003ZM16.5883 23.8918L21.439 21.1118L21.4502 26.8887L16.607 29.6644L16.5883 23.8918ZM21.6989 15.0214L26.7077 12.1689L26.7255 17.7739L21.7164 20.6421L21.6989 15.0214ZM21.5626 14.7869L16.6678 11.9612L21.6758 9.08946L26.5874 11.9252L21.5626 14.7869ZM11.2516 14.7534L6.2241 11.8507L11.0985 9.05748L16.1258 11.96L11.2516 14.7534ZM11.1166 14.9872L11.1346 20.606L6.10724 17.7031L6.0891 12.0846L11.1166 14.9872ZM16.3 23.9003L16.3354 29.6822L11.4306 26.8504L11.4097 21.0766L16.3 23.9003ZM21.7361 26.7249L21.7177 20.9522L26.7266 18.0816L26.7449 23.8543L21.7361 26.7249ZM21.4061 8.93374L16.3968 11.8044L11.3695 8.90189L16.3792 6.0315L21.4061 8.93374ZM6.10815 18.0154L11.1356 20.9183L11.154 26.6908L6.12673 23.7883L6.10815 18.0154Z" fill="#0D1117"/>
</g>
<g clip-path="url(#clip2)">
<path d="M4.92788 22.0116L15.489 28.064L26.089 21.9442L26.1282 9.77155L15.567 3.71909L4.96687 9.83909L4.92788 22.0116ZM20.557 12.9881L20.5397 18.6424L15.6497 15.821L15.6521 10.18L20.557 12.9881ZM15.5086 21.8223L15.509 21.8215L15.5096 21.8224L15.5086 21.8223ZM15.5092 21.6661L10.6412 18.8682L15.5133 16.0553L20.3718 18.8587L15.5092 21.6661ZM10.3825 12.7859L10.4974 18.6398L10.5175 13.0198L15.3808 10.2123L10.3825 12.7859ZM10.2458 13.0398L10.228 18.6307L5.21942 15.7519L5.2372 10.1697L10.2458 13.0398ZM15.3725 21.9009L15.3384 27.6649L10.4754 24.8779L10.496 19.1058L15.3725 21.9009ZM15.6437 21.9002L20.5383 19.074L20.5213 24.8469L15.6096 27.6826L15.6437 21.9002ZM20.8282 12.9874L25.8558 10.0847L25.8376 15.7027L20.8103 18.6052L20.8282 12.9874ZM20.6932 12.7535L15.8182 9.95972L20.8459 7.05731L25.7208 9.85089L20.6932 12.7535ZM10.3825 12.7859L5.35759 9.92559L10.2624 7.0938L15.2731 9.96267L10.3825 12.7859ZM5.21839 16.0814L10.2269 18.9519L10.2084 24.7249L5.19995 21.8545L5.21839 16.0814ZM20.791 24.6912L20.8095 18.9177L25.8368 16.0152L25.8178 21.7889L20.791 24.6912ZM20.575 6.90195L15.5473 9.80437L10.5389 6.93414L15.5662 4.03162L20.575 6.90195Z" fill="#F7D766"/>
</g>
</g>
<defs>
<clipPath id="clip0">
<rect width="33" height="33" fill="white"/>
</clipPath>
<clipPath id="clip1">
<rect width="27" height="34" fill="white" transform="translate(34.9448 13) rotate(120)"/>
</clipPath>
<clipPath id="clip2">
<rect width="27" height="34" fill="white" transform="translate(10.5 34.3828) rotate(-120)"/>
</clipPath>
</defs>
</svg>
