<svg width="800" height="33" viewBox="0 0 800 33" fill="none" xmlns="http://www.w3.org/2000/svg">
<g clip-path="url(#clip0)">
<path d="M398.5 3.35986L387.978 9.47986V21.7196L398.5 27.8399L409.022 21.7199V9.47986L398.5 3.35986ZM398.5 21.4068L393.612 18.5647L398.5 15.7405L403.384 18.563L398.5 21.4068ZM393.373 12.6177L393.374 12.6185H393.373L393.373 12.6177ZM393.508 12.6963L398.365 9.87943V15.5052L393.508 18.3112V12.6963ZM403.762 12.6965L398.635 9.8691L403.492 12.6965L403.492 18.312L403.762 12.6965ZM403.611 12.4512L398.778 9.64034L403.775 6.74218L408.601 9.54868L403.611 12.4512ZM393.373 12.4604L388.399 9.54895L393.244 6.73103L398.232 9.6349L393.373 12.4604ZM393.238 12.6957L393.239 18.3476L388.248 15.4465V9.77498L393.238 12.6957ZM398.365 21.6421V27.4474L393.509 24.6226V18.8176L398.365 21.6421ZM398.635 21.6421L403.492 18.8171L403.492 24.6224L398.635 27.4474V21.6421ZM403.762 12.6965L408.752 9.77498V15.4386L403.762 18.3435L403.762 12.6965ZM403.49 6.57654L398.5 9.47878L393.51 6.57626L398.5 3.67402L403.49 6.57654ZM388.248 15.7579L393.238 18.6607V24.4657L388.248 21.5624V15.7579ZM403.762 24.4654L403.762 18.6601L408.752 15.7579V21.5629L403.762 24.4654Z" fill="white"/>
<g clip-path="url(#clip1)">
<path d="M409.017 23.0114L408.978 10.8389L398.378 4.71906L387.817 10.7714L387.856 22.9439L398.456 29.0639L409.017 23.0114ZM393.388 13.9879L398.293 11.1758L398.295 16.8213L393.409 19.6397L393.388 13.9879ZM403.563 13.9428L403.562 13.9429L403.562 13.9419L403.563 13.9428ZM403.427 14.0204L403.438 19.6352L398.566 16.8223L398.565 11.213L403.427 14.0204ZM398.3 22.9003L403.312 19.8739L398.435 22.6665L393.572 19.8586L398.3 22.9003ZM398.588 22.8918L403.439 20.1118L403.45 25.8887L398.607 28.6644L398.588 22.8918ZM403.699 14.0214L408.708 11.1689L408.726 16.7739L403.716 19.6421L403.699 14.0214ZM403.563 13.7869L398.668 10.9612L403.676 8.08946L408.587 10.9252L403.563 13.7869ZM393.252 13.7534L388.224 10.8507L393.098 8.05748L398.126 10.96L393.252 13.7534ZM393.117 13.9872L393.135 19.606L388.107 16.7031L388.089 11.0846L393.117 13.9872ZM398.3 22.9003L398.335 28.6822L393.431 25.8504L393.41 20.0766L398.3 22.9003ZM403.736 25.7249L403.718 19.9522L408.727 17.0816L408.745 22.8543L403.736 25.7249ZM403.406 7.93374L398.397 10.8044L393.37 7.90189L398.379 5.0315L403.406 7.93374ZM388.108 17.0154L393.136 19.9183L393.154 25.6908L388.127 22.7883L388.108 17.0154Z" fill="#0D1117"/>
</g>
<g clip-path="url(#clip2)">
<path d="M386.928 21.0116L397.489 27.064L408.089 20.9442L408.128 8.77155L397.567 2.71909L386.967 8.83909L386.928 21.0116ZM402.557 11.9881L402.54 17.6424L397.65 14.821L397.652 9.18005L402.557 11.9881ZM397.509 20.8223L397.509 20.8215L397.51 20.8224L397.509 20.8223ZM397.509 20.6661L392.641 17.8682L397.513 15.0553L402.372 17.8587L397.509 20.6661ZM392.383 11.7859L392.497 17.6398L392.518 12.0198L397.381 9.21228L392.383 11.7859ZM392.246 12.0398L392.228 17.6307L387.219 14.7519L387.237 9.16969L392.246 12.0398ZM397.372 20.9009L397.338 26.6649L392.475 23.8779L392.496 18.1058L397.372 20.9009ZM397.644 20.9002L402.538 18.074L402.521 23.8469L397.61 26.6826L397.644 20.9002ZM402.828 11.9874L407.856 9.08472L407.838 14.7027L402.81 17.6052L402.828 11.9874ZM402.693 11.7535L397.818 8.95972L402.846 6.05731L407.721 8.85089L402.693 11.7535ZM392.383 11.7859L387.358 8.92559L392.262 6.0938L397.273 8.96267L392.383 11.7859ZM387.218 15.0814L392.227 17.9519L392.208 23.7249L387.2 20.8545L387.218 15.0814ZM402.791 23.6912L402.81 17.9177L407.837 15.0152L407.818 20.7889L402.791 23.6912ZM402.575 5.90195L397.547 8.80437L392.539 5.93414L397.566 3.03162L402.575 5.90195Z" fill="#F7D766"/>
</g>
<line x1="425" y1="17.5" x2="773.585" y2="17.5" stroke="white"/>
<line x1="425.943" y1="18.5" x2="774.528" y2="18.5" stroke="#F7D766"/>
<line x1="426.415" y1="16.5" x2="775" y2="16.5" stroke="#0D1117"/>
<line x1="21" y1="17.5" x2="369.585" y2="17.5" stroke="white"/>
<line x1="21.9434" y1="18.5" x2="370.528" y2="18.5" stroke="#F7D766"/>
<line x1="22.415" y1="16.5" x2="371" y2="16.5" stroke="#0D1117"/>
</g>
<defs>
<clipPath id="clip0">
<rect width="800" height="33" fill="white"/>
</clipPath>
<clipPath id="clip1">
<rect width="27" height="34" fill="white" transform="translate(416.945 12) rotate(120)"/>
</clipPath>
<clipPath id="clip2">
<rect width="27" height="34" fill="white" transform="translate(392.5 33.3828) rotate(-120)"/>
</clipPath>
</defs>
</svg>
